%TF.GenerationSoftware,KiCad,Pcbnew,8.0.1*%
%TF.CreationDate,2024-05-03T15:12:58-07:00*%
%TF.ProjectId,DAWN_sensor_pcb,4441574e-5f73-4656-9e73-6f725f706362,rev?*%
%TF.SameCoordinates,Original*%
%TF.FileFunction,Copper,L2,Bot*%
%TF.FilePolarity,Positive*%
%FSLAX46Y46*%
G04 Gerber Fmt 4.6, Leading zero omitted, Abs format (unit mm)*
G04 Created by KiCad (PCBNEW 8.0.1) date 2024-05-03 15:12:58*
%MOMM*%
%LPD*%
G01*
G04 APERTURE LIST*
%TA.AperFunction,ComponentPad*%
%ADD10O,1.700000X1.700000*%
%TD*%
%TA.AperFunction,ComponentPad*%
%ADD11R,1.700000X1.700000*%
%TD*%
%TA.AperFunction,ViaPad*%
%ADD12C,0.600000*%
%TD*%
%TA.AperFunction,Conductor*%
%ADD13C,0.200000*%
%TD*%
G04 APERTURE END LIST*
D10*
%TO.P,J1,5,Pin_5*%
%TO.N,+3.3V*%
X148253750Y-61416250D03*
%TO.P,J1,4,Pin_4*%
%TO.N,SDA*%
X148253750Y-63956250D03*
%TO.P,J1,3,Pin_3*%
%TO.N,SCL*%
X148253750Y-66496250D03*
%TO.P,J1,2,Pin_2*%
%TO.N,INTn*%
X148253750Y-69036250D03*
D11*
%TO.P,J1,1,Pin_1*%
%TO.N,GND*%
X148253750Y-71576250D03*
%TD*%
D12*
%TO.N,GND*%
X146753750Y-61416250D03*
X146753750Y-63666250D03*
%TO.N,+3.3V*%
X139253750Y-71416250D03*
X144253750Y-61666250D03*
X145253750Y-70916250D03*
X140253750Y-62916250D03*
X140003750Y-71916250D03*
X145253750Y-62166250D03*
%TO.N,SDA*%
X144211192Y-68954322D03*
%TO.N,INTn*%
X142503750Y-63166250D03*
%TD*%
D13*
%TO.N,GND*%
X146753750Y-63666250D02*
X146753750Y-61416250D01*
%TO.N,SDA*%
X144060505Y-68803635D02*
X144060505Y-68149495D01*
X144060505Y-68149495D02*
X148253750Y-63956250D01*
X144211192Y-68954322D02*
X144060505Y-68803635D01*
%TO.N,INTn*%
X142503750Y-63166250D02*
X142503750Y-68661183D01*
X143811976Y-69969409D02*
X147320591Y-69969409D01*
X142503750Y-68661183D02*
X143811976Y-69969409D01*
X147320591Y-69969409D02*
X148253750Y-69036250D01*
%TD*%
%TA.AperFunction,Conductor*%
%TO.N,+3.3V*%
G36*
X149019897Y-59666751D02*
G01*
X149081363Y-59666750D01*
X149090208Y-59667065D01*
X149290345Y-59681378D01*
X149307851Y-59683895D01*
X149499579Y-59725603D01*
X149516544Y-59730584D01*
X149700392Y-59799156D01*
X149716475Y-59806500D01*
X149888695Y-59900540D01*
X149903560Y-59910093D01*
X150060642Y-60027686D01*
X150074005Y-60039265D01*
X150212750Y-60178012D01*
X150224336Y-60191384D01*
X150341911Y-60348450D01*
X150351476Y-60363333D01*
X150445507Y-60535543D01*
X150452856Y-60551636D01*
X150521416Y-60735462D01*
X150521421Y-60735474D01*
X150526405Y-60752451D01*
X150568107Y-60944175D01*
X150570624Y-60961687D01*
X150584969Y-61162325D01*
X150585285Y-61171170D01*
X150585284Y-61240753D01*
X150585286Y-61240782D01*
X150585286Y-71842752D01*
X150585284Y-71842786D01*
X150585285Y-71911839D01*
X150584969Y-71920684D01*
X150570660Y-72120815D01*
X150568143Y-72138328D01*
X150526438Y-72330060D01*
X150521454Y-72347035D01*
X150452889Y-72530879D01*
X150445539Y-72546974D01*
X150351509Y-72719182D01*
X150341944Y-72734065D01*
X150224363Y-72891139D01*
X150212777Y-72904511D01*
X150074033Y-73043257D01*
X150060662Y-73054843D01*
X149903586Y-73172430D01*
X149888702Y-73181995D01*
X149716497Y-73276027D01*
X149700404Y-73283377D01*
X149516557Y-73351949D01*
X149499580Y-73356933D01*
X149307859Y-73398638D01*
X149290347Y-73401156D01*
X149090713Y-73415433D01*
X149081868Y-73415749D01*
X149013813Y-73415749D01*
X149013745Y-73415752D01*
X139504495Y-73416174D01*
X139495527Y-73415850D01*
X139292713Y-73401154D01*
X139274977Y-73398570D01*
X139080796Y-73355757D01*
X139063617Y-73350643D01*
X138896143Y-73287283D01*
X138877632Y-73280280D01*
X138861371Y-73272743D01*
X138687484Y-73176309D01*
X138672479Y-73166507D01*
X138514300Y-73046003D01*
X138500864Y-73034138D01*
X138361718Y-72892095D01*
X138350134Y-72878419D01*
X138232914Y-72717793D01*
X138223425Y-72702594D01*
X138205468Y-72668581D01*
X138130586Y-72526744D01*
X138123391Y-72510344D01*
X138056871Y-72322941D01*
X138052114Y-72305666D01*
X138013309Y-72110643D01*
X138011091Y-72092857D01*
X138009777Y-72067492D01*
X138000666Y-71891543D01*
X138000500Y-71885130D01*
X138000500Y-71881453D01*
X138000526Y-71878900D01*
X138000764Y-71867325D01*
X138001751Y-71819430D01*
X138001749Y-71819423D01*
X138001253Y-71814935D01*
X138000500Y-71801288D01*
X138000500Y-63166253D01*
X141698185Y-63166253D01*
X141718380Y-63345499D01*
X141718381Y-63345504D01*
X141777961Y-63515773D01*
X141838265Y-63611746D01*
X141872510Y-63666246D01*
X141873935Y-63668513D01*
X141876195Y-63671347D01*
X141877084Y-63673525D01*
X141877639Y-63674408D01*
X141877484Y-63674505D01*
X141902605Y-63736033D01*
X141903250Y-63748662D01*
X141903250Y-68574513D01*
X141903249Y-68574531D01*
X141903249Y-68740237D01*
X141903248Y-68740237D01*
X141944173Y-68892968D01*
X141970003Y-68937705D01*
X141970004Y-68937709D01*
X141970005Y-68937709D01*
X142023229Y-69029897D01*
X142023231Y-69029900D01*
X142142099Y-69148768D01*
X142142105Y-69148773D01*
X143327115Y-70333783D01*
X143327125Y-70333794D01*
X143331455Y-70338124D01*
X143331456Y-70338125D01*
X143443260Y-70449929D01*
X143530071Y-70500048D01*
X143530073Y-70500050D01*
X143568127Y-70522020D01*
X143580191Y-70528986D01*
X143732919Y-70569910D01*
X143732922Y-70569910D01*
X143898629Y-70569910D01*
X143898645Y-70569909D01*
X146779250Y-70569909D01*
X146846289Y-70589594D01*
X146892044Y-70642398D01*
X146903250Y-70693909D01*
X146903250Y-72474120D01*
X146903251Y-72474126D01*
X146909658Y-72533733D01*
X146959952Y-72668578D01*
X146959956Y-72668585D01*
X147046202Y-72783794D01*
X147046205Y-72783797D01*
X147161414Y-72870043D01*
X147161421Y-72870047D01*
X147296267Y-72920341D01*
X147296266Y-72920341D01*
X147303194Y-72921085D01*
X147355877Y-72926750D01*
X149151622Y-72926749D01*
X149211233Y-72920341D01*
X149346081Y-72870046D01*
X149461296Y-72783796D01*
X149547546Y-72668581D01*
X149597841Y-72533733D01*
X149604250Y-72474123D01*
X149604249Y-70678378D01*
X149597841Y-70618767D01*
X149586960Y-70589594D01*
X149547547Y-70483921D01*
X149547543Y-70483914D01*
X149461297Y-70368705D01*
X149461294Y-70368702D01*
X149346085Y-70282456D01*
X149346078Y-70282452D01*
X149214667Y-70233439D01*
X149158733Y-70191568D01*
X149134316Y-70126103D01*
X149149168Y-70057830D01*
X149170313Y-70029582D01*
X149292245Y-69907651D01*
X149427785Y-69714080D01*
X149527653Y-69499913D01*
X149588813Y-69271658D01*
X149609409Y-69036250D01*
X149608853Y-69029900D01*
X149602241Y-68954318D01*
X149588813Y-68800842D01*
X149527653Y-68572587D01*
X149427785Y-68358421D01*
X149343845Y-68238541D01*
X149292244Y-68164847D01*
X149125152Y-67997756D01*
X149125146Y-67997751D01*
X148939592Y-67867825D01*
X148895967Y-67813248D01*
X148888773Y-67743750D01*
X148920296Y-67681395D01*
X148939592Y-67664675D01*
X148961776Y-67649141D01*
X149125151Y-67534745D01*
X149292245Y-67367651D01*
X149427785Y-67174080D01*
X149527653Y-66959913D01*
X149588813Y-66731658D01*
X149609409Y-66496250D01*
X149588813Y-66260842D01*
X149527653Y-66032587D01*
X149427785Y-65818421D01*
X149292245Y-65624849D01*
X149292244Y-65624847D01*
X149125152Y-65457756D01*
X149125146Y-65457751D01*
X148939592Y-65327825D01*
X148895967Y-65273248D01*
X148888773Y-65203750D01*
X148920296Y-65141395D01*
X148939592Y-65124675D01*
X148961776Y-65109141D01*
X149125151Y-64994745D01*
X149292245Y-64827651D01*
X149427785Y-64634080D01*
X149527653Y-64419913D01*
X149588813Y-64191658D01*
X149609409Y-63956250D01*
X149588813Y-63720842D01*
X149527653Y-63492587D01*
X149427785Y-63278421D01*
X149349245Y-63166253D01*
X149292244Y-63084847D01*
X149125152Y-62917756D01*
X149125151Y-62917755D01*
X148939155Y-62787519D01*
X148895531Y-62732942D01*
X148888338Y-62663443D01*
X148919860Y-62601089D01*
X148939155Y-62584369D01*
X149124832Y-62454355D01*
X149291855Y-62287332D01*
X149427350Y-62093828D01*
X149527179Y-61879742D01*
X149527182Y-61879736D01*
X149584386Y-61666250D01*
X148686762Y-61666250D01*
X148719675Y-61609243D01*
X148753750Y-61482076D01*
X148753750Y-61350424D01*
X148719675Y-61223257D01*
X148686762Y-61166250D01*
X149584386Y-61166250D01*
X149584385Y-61166249D01*
X149527182Y-60952763D01*
X149527179Y-60952757D01*
X149427350Y-60738672D01*
X149427349Y-60738670D01*
X149291863Y-60545176D01*
X149291858Y-60545170D01*
X149124832Y-60378144D01*
X148931328Y-60242649D01*
X148717242Y-60142820D01*
X148717236Y-60142817D01*
X148503750Y-60085614D01*
X148503750Y-60983238D01*
X148446743Y-60950325D01*
X148319576Y-60916250D01*
X148187924Y-60916250D01*
X148060757Y-60950325D01*
X148003750Y-60983238D01*
X148003750Y-60085614D01*
X148003749Y-60085614D01*
X147790263Y-60142817D01*
X147790257Y-60142820D01*
X147576172Y-60242649D01*
X147576170Y-60242650D01*
X147382676Y-60378136D01*
X147382670Y-60378141D01*
X147215643Y-60545168D01*
X147215638Y-60545174D01*
X147165687Y-60616511D01*
X147111110Y-60660135D01*
X147041611Y-60667327D01*
X147023158Y-60662427D01*
X146933012Y-60630883D01*
X146932999Y-60630880D01*
X146753754Y-60610685D01*
X146753746Y-60610685D01*
X146574500Y-60630880D01*
X146574495Y-60630881D01*
X146404226Y-60690461D01*
X146251487Y-60786434D01*
X146123934Y-60913987D01*
X146027961Y-61066726D01*
X145968381Y-61236995D01*
X145968380Y-61237000D01*
X145948185Y-61416246D01*
X145948185Y-61416253D01*
X145968380Y-61595499D01*
X145968381Y-61595504D01*
X146027961Y-61765773D01*
X146088265Y-61861746D01*
X146099569Y-61879736D01*
X146123935Y-61918513D01*
X146126195Y-61921347D01*
X146127084Y-61923525D01*
X146127639Y-61924408D01*
X146127484Y-61924505D01*
X146152605Y-61986033D01*
X146153250Y-61998662D01*
X146153250Y-63083837D01*
X146133565Y-63150876D01*
X146126200Y-63161146D01*
X146123936Y-63163984D01*
X146027961Y-63316726D01*
X145968381Y-63486995D01*
X145968380Y-63487000D01*
X145948185Y-63666246D01*
X145948185Y-63666253D01*
X145968380Y-63845499D01*
X145968381Y-63845504D01*
X146027961Y-64015773D01*
X146123934Y-64168512D01*
X146251488Y-64296066D01*
X146404228Y-64392039D01*
X146574495Y-64451618D01*
X146619389Y-64456676D01*
X146683801Y-64483741D01*
X146723357Y-64541335D01*
X146725496Y-64611172D01*
X146693186Y-64667577D01*
X143691791Y-67668973D01*
X143579986Y-67780777D01*
X143579982Y-67780782D01*
X143539382Y-67851105D01*
X143532968Y-67862215D01*
X143500928Y-67917710D01*
X143460004Y-68070438D01*
X143460004Y-68070440D01*
X143460004Y-68238541D01*
X143460005Y-68238554D01*
X143460005Y-68468841D01*
X143440320Y-68535880D01*
X143387516Y-68581635D01*
X143318358Y-68591579D01*
X143254802Y-68562554D01*
X143248324Y-68556522D01*
X143140569Y-68448767D01*
X143107084Y-68387444D01*
X143104250Y-68361086D01*
X143104250Y-63748662D01*
X143123935Y-63681623D01*
X143131305Y-63671347D01*
X143133560Y-63668517D01*
X143133566Y-63668512D01*
X143229539Y-63515772D01*
X143289118Y-63345505D01*
X143289119Y-63345499D01*
X143309315Y-63166253D01*
X143309315Y-63166246D01*
X143289119Y-62987000D01*
X143289118Y-62986995D01*
X143229538Y-62816726D01*
X143176893Y-62732942D01*
X143133566Y-62663988D01*
X143006012Y-62536434D01*
X142853273Y-62440461D01*
X142683004Y-62380881D01*
X142682999Y-62380880D01*
X142503754Y-62360685D01*
X142503746Y-62360685D01*
X142324500Y-62380880D01*
X142324495Y-62380881D01*
X142154226Y-62440461D01*
X142001487Y-62536434D01*
X141873934Y-62663987D01*
X141777961Y-62816726D01*
X141718381Y-62986995D01*
X141718380Y-62987000D01*
X141698185Y-63166246D01*
X141698185Y-63166253D01*
X138000500Y-63166253D01*
X138000500Y-61240782D01*
X138000501Y-61240753D01*
X138000500Y-61232133D01*
X138000502Y-61232130D01*
X138000500Y-61170658D01*
X138000816Y-61161815D01*
X138005210Y-61100358D01*
X138015125Y-60961679D01*
X138017642Y-60944170D01*
X138024208Y-60913987D01*
X138059347Y-60752432D01*
X138064331Y-60735462D01*
X138089742Y-60667327D01*
X138132900Y-60551606D01*
X138140238Y-60535537D01*
X138234281Y-60363304D01*
X138243835Y-60348437D01*
X138361430Y-60191344D01*
X138373006Y-60177985D01*
X138511750Y-60039237D01*
X138525119Y-60027653D01*
X138540127Y-60016417D01*
X138682204Y-59910057D01*
X138697070Y-59900504D01*
X138869305Y-59806454D01*
X138885371Y-59799116D01*
X139069239Y-59730536D01*
X139086192Y-59725558D01*
X139277936Y-59683846D01*
X139295435Y-59681330D01*
X139494883Y-59667066D01*
X139503729Y-59666750D01*
X139565892Y-59666750D01*
X149019893Y-59666750D01*
X149019897Y-59666751D01*
G37*
%TD.AperFunction*%
%TD*%
M02*
