%TF.GenerationSoftware,KiCad,Pcbnew,8.0.1*%
%TF.CreationDate,2024-05-03T15:12:58-07:00*%
%TF.ProjectId,DAWN_sensor_pcb,4441574e-5f73-4656-9e73-6f725f706362,rev?*%
%TF.SameCoordinates,Original*%
%TF.FileFunction,Copper,L1,Top*%
%TF.FilePolarity,Positive*%
%FSLAX46Y46*%
G04 Gerber Fmt 4.6, Leading zero omitted, Abs format (unit mm)*
G04 Created by KiCad (PCBNEW 8.0.1) date 2024-05-03 15:12:58*
%MOMM*%
%LPD*%
G01*
G04 APERTURE LIST*
G04 Aperture macros list*
%AMRoundRect*
0 Rectangle with rounded corners*
0 $1 Rounding radius*
0 $2 $3 $4 $5 $6 $7 $8 $9 X,Y pos of 4 corners*
0 Add a 4 corners polygon primitive as box body*
4,1,4,$2,$3,$4,$5,$6,$7,$8,$9,$2,$3,0*
0 Add four circle primitives for the rounded corners*
1,1,$1+$1,$2,$3*
1,1,$1+$1,$4,$5*
1,1,$1+$1,$6,$7*
1,1,$1+$1,$8,$9*
0 Add four rect primitives between the rounded corners*
20,1,$1+$1,$2,$3,$4,$5,0*
20,1,$1+$1,$4,$5,$6,$7,0*
20,1,$1+$1,$6,$7,$8,$9,0*
20,1,$1+$1,$8,$9,$2,$3,0*%
G04 Aperture macros list end*
%TA.AperFunction,SMDPad,CuDef*%
%ADD10RoundRect,0.250000X-0.250000X-0.475000X0.250000X-0.475000X0.250000X0.475000X-0.250000X0.475000X0*%
%TD*%
%TA.AperFunction,SMDPad,CuDef*%
%ADD11R,0.350000X0.500000*%
%TD*%
%TA.AperFunction,SMDPad,CuDef*%
%ADD12R,0.850000X0.850000*%
%TD*%
%TA.AperFunction,ComponentPad*%
%ADD13O,1.700000X1.700000*%
%TD*%
%TA.AperFunction,ComponentPad*%
%ADD14R,1.700000X1.700000*%
%TD*%
%TA.AperFunction,SMDPad,CuDef*%
%ADD15RoundRect,0.250000X-0.450000X0.262500X-0.450000X-0.262500X0.450000X-0.262500X0.450000X0.262500X0*%
%TD*%
%TA.AperFunction,SMDPad,CuDef*%
%ADD16RoundRect,0.250000X0.450000X-0.262500X0.450000X0.262500X-0.450000X0.262500X-0.450000X-0.262500X0*%
%TD*%
%TA.AperFunction,SMDPad,CuDef*%
%ADD17RoundRect,0.250000X0.475000X-0.250000X0.475000X0.250000X-0.475000X0.250000X-0.475000X-0.250000X0*%
%TD*%
%TA.AperFunction,SMDPad,CuDef*%
%ADD18RoundRect,0.250000X0.250000X0.475000X-0.250000X0.475000X-0.250000X-0.475000X0.250000X-0.475000X0*%
%TD*%
%TA.AperFunction,SMDPad,CuDef*%
%ADD19RoundRect,0.250000X-0.475000X0.250000X-0.475000X-0.250000X0.475000X-0.250000X0.475000X0.250000X0*%
%TD*%
%TA.AperFunction,ViaPad*%
%ADD20C,0.600000*%
%TD*%
%TA.AperFunction,Conductor*%
%ADD21C,0.200000*%
%TD*%
G04 APERTURE END LIST*
D10*
%TO.P,C4,1*%
%TO.N,+3.3V*%
X141603750Y-71891250D03*
%TO.P,C4,2*%
%TO.N,GND*%
X143503750Y-71891250D03*
%TD*%
D11*
%TO.P,U2,1,GND*%
%TO.N,GND*%
X141528750Y-68141250D03*
%TO.P,U2,2,CSB*%
%TO.N,+3.3V*%
X142178750Y-68141250D03*
%TO.P,U2,3,SDI*%
%TO.N,SDA*%
X142828750Y-68141250D03*
%TO.P,U2,4,SCK*%
%TO.N,SCL*%
X143478750Y-68141250D03*
%TO.P,U2,5,SDO*%
%TO.N,GND*%
X143478750Y-70191250D03*
%TO.P,U2,6,VDDIO*%
%TO.N,+3.3V*%
X142828750Y-70191250D03*
%TO.P,U2,7,GND*%
%TO.N,GND*%
X142178750Y-70191250D03*
%TO.P,U2,8,VDD*%
%TO.N,+3.3V*%
X141528750Y-70191250D03*
%TD*%
D12*
%TO.P,U1,1,MOSI/SDA*%
%TO.N,SDA*%
X141453750Y-66016250D03*
%TO.P,U1,2,SCLK/SCL*%
%TO.N,SCL*%
X142503750Y-66016250D03*
%TO.P,U1,3,MISO/ADDR*%
%TO.N,GND*%
X143553750Y-66016250D03*
%TO.P,U1,4,VDD*%
%TO.N,+3.3V*%
X143553750Y-64966250D03*
%TO.P,U1,5,VDDIO*%
X143553750Y-63916250D03*
%TO.P,U1,6,~{INT}*%
%TO.N,INTn*%
X142503750Y-63916250D03*
%TO.P,U1,7,~{CS}*%
%TO.N,+3.3V*%
X141453750Y-63916250D03*
%TO.P,U1,8,VSS*%
%TO.N,GND*%
X141453750Y-64966250D03*
%TO.P,U1,9,VSS__1*%
X142503750Y-64966250D03*
%TD*%
D13*
%TO.P,J1,5,Pin_5*%
%TO.N,+3.3V*%
X148253750Y-61416250D03*
%TO.P,J1,4,Pin_4*%
%TO.N,SDA*%
X148253750Y-63956250D03*
%TO.P,J1,3,Pin_3*%
%TO.N,SCL*%
X148253750Y-66496250D03*
%TO.P,J1,2,Pin_2*%
%TO.N,INTn*%
X148253750Y-69036250D03*
D14*
%TO.P,J1,1,Pin_1*%
%TO.N,GND*%
X148253750Y-71576250D03*
%TD*%
D15*
%TO.P,R3,1*%
%TO.N,+3.3V*%
X139503750Y-64003750D03*
%TO.P,R3,2*%
%TO.N,SDA*%
X139503750Y-65828750D03*
%TD*%
D16*
%TO.P,R4,1*%
%TO.N,+3.3V*%
X145253750Y-70053750D03*
%TO.P,R4,2*%
%TO.N,SCL*%
X145253750Y-68228750D03*
%TD*%
D17*
%TO.P,C3,1*%
%TO.N,+3.3V*%
X139503750Y-70091250D03*
%TO.P,C3,2*%
%TO.N,GND*%
X139503750Y-68191250D03*
%TD*%
D18*
%TO.P,C2,1*%
%TO.N,+3.3V*%
X143453750Y-61416250D03*
%TO.P,C2,2*%
%TO.N,GND*%
X141553750Y-61416250D03*
%TD*%
D19*
%TO.P,C1,1*%
%TO.N,+3.3V*%
X145253750Y-63966250D03*
%TO.P,C1,2*%
%TO.N,GND*%
X145253750Y-65866250D03*
%TD*%
D20*
%TO.N,GND*%
X146753750Y-61416250D03*
X146753750Y-63666250D03*
%TO.N,+3.3V*%
X139253750Y-71416250D03*
X144253750Y-61666250D03*
X145253750Y-70916250D03*
X140253750Y-62916250D03*
X140003750Y-71916250D03*
X145253750Y-62166250D03*
%TO.N,SDA*%
X144211192Y-68954322D03*
%TO.N,INTn*%
X142503750Y-63166250D03*
%TD*%
D21*
%TO.N,GND*%
X145353750Y-66016250D02*
X145503750Y-65866250D01*
X145253750Y-65866250D02*
X146753750Y-64366250D01*
X143553750Y-66016250D02*
X145353750Y-66016250D01*
X139303750Y-67916250D02*
X139253750Y-67966250D01*
X146753750Y-64366250D02*
X146753750Y-63666250D01*
X143478750Y-71641250D02*
X143503750Y-71666250D01*
X141453750Y-64966250D02*
X142503750Y-64966250D01*
X142178750Y-69966250D02*
X142178750Y-69741250D01*
X143478750Y-69516250D02*
X143478750Y-69966250D01*
X143478750Y-69966250D02*
X143478750Y-71641250D01*
X143378750Y-69416250D02*
X143478750Y-69516250D01*
X142503750Y-69416250D02*
X143378750Y-69416250D01*
X141453750Y-64966250D02*
X138283750Y-64966250D01*
X142178750Y-69741250D02*
X142503750Y-69416250D01*
X141528750Y-67916250D02*
X139303750Y-67916250D01*
%TO.N,+3.3V*%
X140003750Y-71916250D02*
X141353750Y-71916250D01*
X139253750Y-64003750D02*
X141366250Y-64003750D01*
X143553750Y-62216250D02*
X143253750Y-61916250D01*
X142178750Y-68941250D02*
X141528750Y-69591250D01*
X145253750Y-63966250D02*
X145253750Y-62166250D01*
X143553750Y-63916250D02*
X143553750Y-62216250D01*
X145503750Y-63966250D02*
X144553750Y-63966250D01*
X141528750Y-69966250D02*
X139353750Y-69966250D01*
X142178750Y-67916250D02*
X142178750Y-68941250D01*
X145253750Y-69828750D02*
X145253750Y-70916250D01*
X141366250Y-64003750D02*
X141453750Y-63916250D01*
X142828750Y-69966250D02*
X142828750Y-70441250D01*
X141528750Y-69591250D02*
X141528750Y-69966250D01*
X142828750Y-70441250D02*
X141603750Y-71666250D01*
X139353750Y-69966250D02*
X139253750Y-69866250D01*
X139253750Y-63916250D02*
X139253750Y-64003750D01*
X141353750Y-71916250D02*
X141603750Y-71666250D01*
X139253750Y-69866250D02*
X139253750Y-71416250D01*
X143503750Y-61666250D02*
X143253750Y-61916250D01*
X140253750Y-62916250D02*
X139253750Y-63916250D01*
X144253750Y-61666250D02*
X143503750Y-61666250D01*
X144553750Y-63966250D02*
X143553750Y-64966250D01*
%TO.N,SDA*%
X144149264Y-69016250D02*
X143253750Y-69016250D01*
X144211192Y-68954322D02*
X144149264Y-69016250D01*
X139441250Y-66016250D02*
X139253750Y-65828750D01*
X143253750Y-69016250D02*
X142828750Y-68591250D01*
X141453750Y-66016250D02*
X139441250Y-66016250D01*
X142828750Y-68591250D02*
X142828750Y-68141250D01*
X144211192Y-68954322D02*
X144183225Y-68926355D01*
X141453750Y-66016250D02*
X141453750Y-66366250D01*
X142828750Y-67741250D02*
X142828750Y-68141250D01*
X141453750Y-66366250D02*
X142828750Y-67741250D01*
%TO.N,SCL*%
X143478750Y-67916250D02*
X145166250Y-67916250D01*
X146746250Y-68003750D02*
X148253750Y-66496250D01*
X143478750Y-67391250D02*
X143478750Y-67916250D01*
X142503750Y-66416250D02*
X143478750Y-67391250D01*
X145253750Y-68003750D02*
X146746250Y-68003750D01*
X145166250Y-67916250D02*
X145253750Y-68003750D01*
X142503750Y-66016250D02*
X142503750Y-66416250D01*
%TO.N,INTn*%
X142503750Y-63916250D02*
X142503750Y-63166250D01*
%TD*%
%TA.AperFunction,Conductor*%
%TO.N,GND*%
G36*
X149019897Y-59666751D02*
G01*
X149081363Y-59666750D01*
X149090208Y-59667065D01*
X149290345Y-59681378D01*
X149307851Y-59683895D01*
X149499579Y-59725603D01*
X149516544Y-59730584D01*
X149700392Y-59799156D01*
X149716475Y-59806500D01*
X149888695Y-59900540D01*
X149903560Y-59910093D01*
X150060642Y-60027686D01*
X150074005Y-60039265D01*
X150212750Y-60178012D01*
X150224336Y-60191384D01*
X150341911Y-60348450D01*
X150351476Y-60363333D01*
X150445507Y-60535543D01*
X150452856Y-60551636D01*
X150521416Y-60735462D01*
X150521421Y-60735474D01*
X150526405Y-60752451D01*
X150568107Y-60944175D01*
X150570624Y-60961687D01*
X150584969Y-61162325D01*
X150585285Y-61171170D01*
X150585284Y-61240753D01*
X150585286Y-61240782D01*
X150585286Y-71842752D01*
X150585284Y-71842786D01*
X150585285Y-71911839D01*
X150584969Y-71920684D01*
X150570660Y-72120815D01*
X150568143Y-72138328D01*
X150526438Y-72330060D01*
X150521454Y-72347035D01*
X150452889Y-72530879D01*
X150445539Y-72546974D01*
X150351509Y-72719182D01*
X150341944Y-72734065D01*
X150224363Y-72891139D01*
X150212777Y-72904511D01*
X150074033Y-73043257D01*
X150060662Y-73054843D01*
X149903586Y-73172430D01*
X149888702Y-73181995D01*
X149716497Y-73276027D01*
X149700404Y-73283377D01*
X149516557Y-73351949D01*
X149499580Y-73356933D01*
X149307859Y-73398638D01*
X149290347Y-73401156D01*
X149090713Y-73415433D01*
X149081868Y-73415749D01*
X149013813Y-73415749D01*
X149013745Y-73415752D01*
X139504495Y-73416174D01*
X139495527Y-73415850D01*
X139292713Y-73401154D01*
X139274977Y-73398570D01*
X139080796Y-73355757D01*
X139063617Y-73350643D01*
X138896143Y-73287283D01*
X138877632Y-73280280D01*
X138861371Y-73272743D01*
X138687484Y-73176309D01*
X138672479Y-73166507D01*
X138514300Y-73046003D01*
X138500864Y-73034138D01*
X138361718Y-72892095D01*
X138350134Y-72878419D01*
X138343698Y-72869600D01*
X138232914Y-72717793D01*
X138223425Y-72702594D01*
X138130586Y-72526744D01*
X138123391Y-72510344D01*
X138056871Y-72322941D01*
X138052114Y-72305666D01*
X138039402Y-72241781D01*
X138013308Y-72110640D01*
X138011091Y-72092857D01*
X138009777Y-72067492D01*
X138000666Y-71891543D01*
X138000500Y-71885130D01*
X138000500Y-71881453D01*
X138000526Y-71878900D01*
X138000764Y-71867325D01*
X138001751Y-71819430D01*
X138001749Y-71819423D01*
X138001253Y-71814935D01*
X138000500Y-71801288D01*
X138000500Y-70391251D01*
X138278250Y-70391251D01*
X138278251Y-70391269D01*
X138288750Y-70494046D01*
X138288751Y-70494049D01*
X138343935Y-70660581D01*
X138343937Y-70660586D01*
X138365620Y-70695739D01*
X138429185Y-70798796D01*
X138436039Y-70809907D01*
X138521668Y-70895536D01*
X138555153Y-70956859D01*
X138550169Y-71026551D01*
X138538982Y-71049186D01*
X138527961Y-71066726D01*
X138527960Y-71066728D01*
X138468383Y-71236987D01*
X138468380Y-71237000D01*
X138448185Y-71416246D01*
X138448185Y-71416253D01*
X138468380Y-71595499D01*
X138468381Y-71595504D01*
X138527961Y-71765773D01*
X138591771Y-71867325D01*
X138623934Y-71918512D01*
X138751488Y-72046066D01*
X138799526Y-72076250D01*
X138884536Y-72129666D01*
X138904228Y-72142039D01*
X139074495Y-72201618D01*
X139074500Y-72201619D01*
X139132969Y-72208206D01*
X139190740Y-72214715D01*
X139255154Y-72241781D01*
X139281851Y-72271963D01*
X139373934Y-72418512D01*
X139501488Y-72546066D01*
X139591830Y-72602832D01*
X139625781Y-72624165D01*
X139654228Y-72642039D01*
X139778678Y-72685586D01*
X139824495Y-72701618D01*
X139824500Y-72701619D01*
X140003746Y-72721815D01*
X140003750Y-72721815D01*
X140003754Y-72721815D01*
X140182999Y-72701619D01*
X140183002Y-72701618D01*
X140183005Y-72701618D01*
X140353272Y-72642039D01*
X140468668Y-72569530D01*
X140535904Y-72550530D01*
X140602739Y-72570897D01*
X140647954Y-72624165D01*
X140652345Y-72635518D01*
X140663223Y-72668343D01*
X140668936Y-72685584D01*
X140761038Y-72834906D01*
X140885094Y-72958962D01*
X141034416Y-73051064D01*
X141200953Y-73106249D01*
X141303741Y-73116750D01*
X141903758Y-73116749D01*
X141903766Y-73116748D01*
X141903769Y-73116748D01*
X141960052Y-73110998D01*
X142006547Y-73106249D01*
X142173084Y-73051064D01*
X142322406Y-72958962D01*
X142446462Y-72834906D01*
X142448502Y-72831597D01*
X142450495Y-72829805D01*
X142450943Y-72829239D01*
X142451039Y-72829315D01*
X142500444Y-72784873D01*
X142569406Y-72773645D01*
X142633490Y-72801484D01*
X142659579Y-72831589D01*
X142661431Y-72834591D01*
X142661433Y-72834594D01*
X142785404Y-72958565D01*
X142934625Y-73050606D01*
X142934630Y-73050608D01*
X143101052Y-73105755D01*
X143101059Y-73105756D01*
X143203769Y-73116249D01*
X143253749Y-73116248D01*
X143253750Y-73116248D01*
X143253750Y-72141250D01*
X143753750Y-72141250D01*
X143753750Y-73116249D01*
X143803722Y-73116249D01*
X143803736Y-73116248D01*
X143906447Y-73105755D01*
X144072869Y-73050608D01*
X144072874Y-73050606D01*
X144222095Y-72958565D01*
X144346065Y-72834595D01*
X144438106Y-72685374D01*
X144438108Y-72685369D01*
X144493255Y-72518947D01*
X144493256Y-72518940D01*
X144503749Y-72416236D01*
X144503750Y-72416223D01*
X144503750Y-72141250D01*
X143753750Y-72141250D01*
X143253750Y-72141250D01*
X143253750Y-70941373D01*
X143273435Y-70874334D01*
X143303436Y-70842109D01*
X143361296Y-70798796D01*
X143447546Y-70683581D01*
X143447548Y-70683576D01*
X143452524Y-70670236D01*
X143494394Y-70614302D01*
X143559859Y-70589884D01*
X143628132Y-70604735D01*
X143656387Y-70625887D01*
X143663726Y-70633226D01*
X143696789Y-70642935D01*
X143742544Y-70695739D01*
X143753750Y-70747250D01*
X143753750Y-71641250D01*
X144503749Y-71641250D01*
X144503749Y-71597689D01*
X144523434Y-71530650D01*
X144576238Y-71484895D01*
X144645396Y-71474951D01*
X144708952Y-71503976D01*
X144715430Y-71510008D01*
X144751488Y-71546066D01*
X144904228Y-71642039D01*
X145074495Y-71701618D01*
X145074500Y-71701619D01*
X145253746Y-71721815D01*
X145253750Y-71721815D01*
X145253754Y-71721815D01*
X145432999Y-71701619D01*
X145433002Y-71701618D01*
X145433005Y-71701618D01*
X145603272Y-71642039D01*
X145756012Y-71546066D01*
X145883566Y-71418512D01*
X145979539Y-71265772D01*
X146039118Y-71095505D01*
X146039542Y-71091749D01*
X146044994Y-71043355D01*
X146072060Y-70978941D01*
X146103119Y-70951698D01*
X146172401Y-70908965D01*
X146172400Y-70908965D01*
X146172406Y-70908962D01*
X146296462Y-70784906D01*
X146388564Y-70635584D01*
X146443749Y-70469047D01*
X146454250Y-70366259D01*
X146454249Y-69741242D01*
X146454090Y-69739690D01*
X146443749Y-69638453D01*
X146443748Y-69638450D01*
X146405131Y-69521913D01*
X146388564Y-69471916D01*
X146296462Y-69322594D01*
X146202799Y-69228931D01*
X146169314Y-69167608D01*
X146174298Y-69097916D01*
X146202799Y-69053569D01*
X146225433Y-69030935D01*
X146296462Y-68959906D01*
X146388564Y-68810584D01*
X146428771Y-68689244D01*
X146468544Y-68631801D01*
X146533059Y-68604978D01*
X146546477Y-68604250D01*
X146659581Y-68604250D01*
X146659597Y-68604251D01*
X146809763Y-68604251D01*
X146876802Y-68623936D01*
X146922557Y-68676740D01*
X146932501Y-68745898D01*
X146929538Y-68760343D01*
X146918689Y-68800833D01*
X146918686Y-68800846D01*
X146898091Y-69036249D01*
X146898091Y-69036250D01*
X146918686Y-69271653D01*
X146918686Y-69271655D01*
X146918687Y-69271658D01*
X146932335Y-69322592D01*
X146979844Y-69499905D01*
X146979846Y-69499909D01*
X146979847Y-69499913D01*
X147063875Y-69680111D01*
X147079715Y-69714080D01*
X147079717Y-69714084D01*
X147163521Y-69833767D01*
X147215251Y-69907646D01*
X147215256Y-69907652D01*
X147337568Y-70029964D01*
X147371053Y-70091287D01*
X147366069Y-70160979D01*
X147324197Y-70216912D01*
X147293221Y-70233827D01*
X147161662Y-70282896D01*
X147161656Y-70282899D01*
X147046562Y-70369059D01*
X147046559Y-70369062D01*
X146960399Y-70484156D01*
X146960395Y-70484163D01*
X146910153Y-70618870D01*
X146910151Y-70618877D01*
X146903750Y-70678405D01*
X146903750Y-71326250D01*
X147820738Y-71326250D01*
X147787825Y-71383257D01*
X147753750Y-71510424D01*
X147753750Y-71642076D01*
X147787825Y-71769243D01*
X147820738Y-71826250D01*
X146903750Y-71826250D01*
X146903750Y-72474094D01*
X146910151Y-72533622D01*
X146910153Y-72533629D01*
X146960395Y-72668336D01*
X146960399Y-72668343D01*
X147046559Y-72783437D01*
X147046562Y-72783440D01*
X147161656Y-72869600D01*
X147161663Y-72869604D01*
X147296370Y-72919846D01*
X147296377Y-72919848D01*
X147355905Y-72926249D01*
X147355922Y-72926250D01*
X148003750Y-72926250D01*
X148003750Y-72009262D01*
X148060757Y-72042175D01*
X148187924Y-72076250D01*
X148319576Y-72076250D01*
X148446743Y-72042175D01*
X148503750Y-72009262D01*
X148503750Y-72926250D01*
X149151578Y-72926250D01*
X149151594Y-72926249D01*
X149211122Y-72919848D01*
X149211129Y-72919846D01*
X149345836Y-72869604D01*
X149345843Y-72869600D01*
X149460937Y-72783440D01*
X149460940Y-72783437D01*
X149547100Y-72668343D01*
X149547104Y-72668336D01*
X149597346Y-72533629D01*
X149597348Y-72533622D01*
X149603749Y-72474094D01*
X149603750Y-72474077D01*
X149603750Y-71826250D01*
X148686762Y-71826250D01*
X148719675Y-71769243D01*
X148753750Y-71642076D01*
X148753750Y-71510424D01*
X148719675Y-71383257D01*
X148686762Y-71326250D01*
X149603750Y-71326250D01*
X149603750Y-70678422D01*
X149603749Y-70678405D01*
X149597348Y-70618877D01*
X149597346Y-70618870D01*
X149547104Y-70484163D01*
X149547100Y-70484156D01*
X149460940Y-70369062D01*
X149460937Y-70369059D01*
X149345843Y-70282899D01*
X149345838Y-70282896D01*
X149214278Y-70233827D01*
X149158345Y-70191955D01*
X149133928Y-70126491D01*
X149148780Y-70058218D01*
X149169925Y-70029970D01*
X149292245Y-69907651D01*
X149427785Y-69714080D01*
X149527653Y-69499913D01*
X149588813Y-69271658D01*
X149609409Y-69036250D01*
X149609174Y-69033569D01*
X149591767Y-68834605D01*
X149588813Y-68800842D01*
X149527653Y-68572587D01*
X149427785Y-68358421D01*
X149292245Y-68164849D01*
X149292244Y-68164847D01*
X149125152Y-67997756D01*
X149125146Y-67997751D01*
X148939592Y-67867825D01*
X148895967Y-67813248D01*
X148888773Y-67743750D01*
X148920296Y-67681395D01*
X148939592Y-67664675D01*
X149000352Y-67622130D01*
X149125151Y-67534745D01*
X149292245Y-67367651D01*
X149427785Y-67174080D01*
X149527653Y-66959913D01*
X149588813Y-66731658D01*
X149609409Y-66496250D01*
X149608785Y-66489123D01*
X149588813Y-66260846D01*
X149588813Y-66260842D01*
X149527653Y-66032587D01*
X149427785Y-65818421D01*
X149379034Y-65748796D01*
X149292244Y-65624847D01*
X149125152Y-65457756D01*
X149125146Y-65457751D01*
X148939592Y-65327825D01*
X148895967Y-65273248D01*
X148888773Y-65203750D01*
X148920296Y-65141395D01*
X148939592Y-65124675D01*
X148961776Y-65109141D01*
X149125151Y-64994745D01*
X149292245Y-64827651D01*
X149427785Y-64634080D01*
X149527653Y-64419913D01*
X149588813Y-64191658D01*
X149609409Y-63956250D01*
X149588813Y-63720842D01*
X149527653Y-63492587D01*
X149427785Y-63278421D01*
X149406199Y-63247592D01*
X149292244Y-63084847D01*
X149125152Y-62917756D01*
X149125146Y-62917751D01*
X148939592Y-62787825D01*
X148895967Y-62733248D01*
X148888773Y-62663750D01*
X148920296Y-62601395D01*
X148939592Y-62584675D01*
X149067432Y-62495160D01*
X149125151Y-62454745D01*
X149292245Y-62287651D01*
X149427785Y-62094080D01*
X149527653Y-61879913D01*
X149588813Y-61651658D01*
X149609409Y-61416250D01*
X149588813Y-61180842D01*
X149527653Y-60952587D01*
X149427785Y-60738421D01*
X149425722Y-60735474D01*
X149292244Y-60544847D01*
X149125152Y-60377756D01*
X149125145Y-60377751D01*
X148931584Y-60242217D01*
X148931580Y-60242215D01*
X148931578Y-60242214D01*
X148717413Y-60142347D01*
X148717409Y-60142346D01*
X148717405Y-60142344D01*
X148489163Y-60081188D01*
X148489153Y-60081186D01*
X148253751Y-60060591D01*
X148253749Y-60060591D01*
X148018346Y-60081186D01*
X148018336Y-60081188D01*
X147790094Y-60142344D01*
X147790085Y-60142348D01*
X147575921Y-60242214D01*
X147575919Y-60242215D01*
X147382347Y-60377755D01*
X147215255Y-60544847D01*
X147079715Y-60738419D01*
X147079714Y-60738421D01*
X146979848Y-60952585D01*
X146979844Y-60952594D01*
X146918688Y-61180836D01*
X146918686Y-61180846D01*
X146898091Y-61416249D01*
X146898091Y-61416250D01*
X146918686Y-61651653D01*
X146918688Y-61651663D01*
X146979844Y-61879905D01*
X146979846Y-61879909D01*
X146979847Y-61879913D01*
X147029783Y-61987000D01*
X147079715Y-62094080D01*
X147079717Y-62094084D01*
X147215251Y-62287645D01*
X147215256Y-62287652D01*
X147382347Y-62454743D01*
X147382353Y-62454748D01*
X147567908Y-62584675D01*
X147611533Y-62639252D01*
X147618727Y-62708750D01*
X147587204Y-62771105D01*
X147567908Y-62787825D01*
X147382347Y-62917755D01*
X147215255Y-63084847D01*
X147079715Y-63278419D01*
X147079714Y-63278421D01*
X146979848Y-63492585D01*
X146979844Y-63492594D01*
X146918688Y-63720836D01*
X146918686Y-63720846D01*
X146898091Y-63956249D01*
X146898091Y-63956250D01*
X146918686Y-64191653D01*
X146918688Y-64191663D01*
X146979844Y-64419905D01*
X146979846Y-64419909D01*
X146979847Y-64419913D01*
X147057101Y-64585584D01*
X147079715Y-64634080D01*
X147079717Y-64634084D01*
X147215251Y-64827645D01*
X147215256Y-64827652D01*
X147382347Y-64994743D01*
X147382353Y-64994748D01*
X147567908Y-65124675D01*
X147611533Y-65179252D01*
X147618727Y-65248750D01*
X147587204Y-65311105D01*
X147567908Y-65327825D01*
X147382347Y-65457755D01*
X147215255Y-65624847D01*
X147079715Y-65818419D01*
X147079714Y-65818421D01*
X146979848Y-66032585D01*
X146979844Y-66032594D01*
X146918688Y-66260836D01*
X146918686Y-66260846D01*
X146898091Y-66496249D01*
X146898091Y-66496250D01*
X146918686Y-66731653D01*
X146918688Y-66731663D01*
X146953077Y-66860006D01*
X146951414Y-66929856D01*
X146920983Y-66979780D01*
X146533834Y-67366931D01*
X146472511Y-67400416D01*
X146446153Y-67403250D01*
X146253083Y-67403250D01*
X146186044Y-67383565D01*
X146176172Y-67376516D01*
X146172408Y-67373540D01*
X146172406Y-67373538D01*
X146023084Y-67281436D01*
X145856547Y-67226251D01*
X145856545Y-67226250D01*
X145753760Y-67215750D01*
X144753748Y-67215750D01*
X144753730Y-67215751D01*
X144650953Y-67226250D01*
X144650950Y-67226251D01*
X144484418Y-67281435D01*
X144484413Y-67281437D01*
X144468683Y-67291139D01*
X144458713Y-67297289D01*
X144393618Y-67315750D01*
X144175352Y-67315750D01*
X144108313Y-67296065D01*
X144062558Y-67243261D01*
X144055576Y-67223840D01*
X144053409Y-67215752D01*
X144053409Y-67215751D01*
X144038327Y-67159465D01*
X144013288Y-67116099D01*
X143996815Y-67048200D01*
X144019666Y-66982173D01*
X144074587Y-66938981D01*
X144078882Y-66937623D01*
X144078858Y-66937559D01*
X144109918Y-66925973D01*
X144109918Y-66925972D01*
X143553750Y-66369803D01*
X143465568Y-66281621D01*
X143432083Y-66220298D01*
X143429249Y-66193944D01*
X143429249Y-66015748D01*
X143448934Y-65948710D01*
X143501738Y-65902955D01*
X143553249Y-65891749D01*
X143731440Y-65891749D01*
X143798479Y-65911434D01*
X143819121Y-65928068D01*
X144451804Y-66560750D01*
X144485289Y-66622073D01*
X144480305Y-66691764D01*
X144451804Y-66736112D01*
X144414898Y-66773017D01*
X144459629Y-66800608D01*
X144626052Y-66855755D01*
X144626059Y-66855756D01*
X144728769Y-66866249D01*
X145003749Y-66866249D01*
X145003750Y-66866248D01*
X145003750Y-66116250D01*
X145503750Y-66116250D01*
X145503750Y-66866249D01*
X145778722Y-66866249D01*
X145778736Y-66866248D01*
X145881447Y-66855755D01*
X146047869Y-66800608D01*
X146047874Y-66800606D01*
X146197095Y-66708565D01*
X146321065Y-66584595D01*
X146413106Y-66435374D01*
X146413108Y-66435369D01*
X146468255Y-66268947D01*
X146468256Y-66268940D01*
X146478749Y-66166236D01*
X146478750Y-66166223D01*
X146478750Y-66116250D01*
X145503750Y-66116250D01*
X145003750Y-66116250D01*
X145003750Y-65740250D01*
X145023435Y-65673211D01*
X145076239Y-65627456D01*
X145127750Y-65616250D01*
X146478749Y-65616250D01*
X146478749Y-65566278D01*
X146478748Y-65566263D01*
X146468255Y-65463552D01*
X146413108Y-65297130D01*
X146413106Y-65297125D01*
X146321065Y-65147904D01*
X146197094Y-65023933D01*
X146197091Y-65023931D01*
X146194089Y-65022079D01*
X146192463Y-65020271D01*
X146191427Y-65019452D01*
X146191567Y-65019274D01*
X146147367Y-64970130D01*
X146136147Y-64901167D01*
X146163993Y-64837086D01*
X146194094Y-64811004D01*
X146197406Y-64808962D01*
X146321462Y-64684906D01*
X146413564Y-64535584D01*
X146468749Y-64369047D01*
X146479250Y-64266259D01*
X146479249Y-63666242D01*
X146468749Y-63563453D01*
X146413564Y-63396916D01*
X146321462Y-63247594D01*
X146197406Y-63123538D01*
X146074057Y-63047456D01*
X146048086Y-63031437D01*
X146048085Y-63031436D01*
X146048084Y-63031436D01*
X145956989Y-63001250D01*
X145939245Y-62995370D01*
X145881800Y-62955597D01*
X145854978Y-62891081D01*
X145854250Y-62877664D01*
X145854250Y-62748662D01*
X145873935Y-62681623D01*
X145881305Y-62671347D01*
X145883560Y-62668517D01*
X145883566Y-62668512D01*
X145979539Y-62515772D01*
X146039118Y-62345505D01*
X146039119Y-62345499D01*
X146059315Y-62166253D01*
X146059315Y-62166246D01*
X146039119Y-61987000D01*
X146039118Y-61986995D01*
X146001648Y-61879913D01*
X145979539Y-61816728D01*
X145883566Y-61663988D01*
X145756012Y-61536434D01*
X145603273Y-61440461D01*
X145433004Y-61380881D01*
X145432999Y-61380880D01*
X145253754Y-61360685D01*
X145253746Y-61360685D01*
X145100886Y-61377907D01*
X145032064Y-61365852D01*
X144982009Y-61320659D01*
X144931819Y-61240782D01*
X144883566Y-61163988D01*
X144756012Y-61036434D01*
X144637047Y-60961683D01*
X144603271Y-60940460D01*
X144528331Y-60914237D01*
X144471556Y-60873515D01*
X144445929Y-60809796D01*
X144443749Y-60788453D01*
X144443748Y-60788450D01*
X144419313Y-60714710D01*
X144388564Y-60621916D01*
X144296462Y-60472594D01*
X144172406Y-60348538D01*
X144023084Y-60256436D01*
X143856547Y-60201251D01*
X143856545Y-60201250D01*
X143753760Y-60190750D01*
X143153748Y-60190750D01*
X143153730Y-60190751D01*
X143050953Y-60201250D01*
X143050950Y-60201251D01*
X142884418Y-60256435D01*
X142884413Y-60256437D01*
X142735092Y-60348539D01*
X142611038Y-60472593D01*
X142611033Y-60472599D01*
X142608991Y-60475911D01*
X142606997Y-60477703D01*
X142606557Y-60478261D01*
X142606461Y-60478185D01*
X142557041Y-60522633D01*
X142488078Y-60533852D01*
X142423997Y-60506005D01*
X142397918Y-60475906D01*
X142396069Y-60472909D01*
X142396066Y-60472905D01*
X142272095Y-60348934D01*
X142122874Y-60256893D01*
X142122869Y-60256891D01*
X141956447Y-60201744D01*
X141956440Y-60201743D01*
X141853736Y-60191250D01*
X141803750Y-60191250D01*
X141803750Y-62656253D01*
X141819187Y-62684524D01*
X141814203Y-62754216D01*
X141803015Y-62776854D01*
X141777960Y-62816728D01*
X141746127Y-62907704D01*
X141705405Y-62964480D01*
X141640452Y-62990228D01*
X141629085Y-62990750D01*
X141178522Y-62990750D01*
X141111483Y-62971065D01*
X141065728Y-62918261D01*
X141055302Y-62880633D01*
X141042930Y-62770826D01*
X141054985Y-62702004D01*
X141102334Y-62650625D01*
X141169944Y-62633001D01*
X141178754Y-62633585D01*
X141253770Y-62641249D01*
X141303749Y-62641248D01*
X141303750Y-62641248D01*
X141303750Y-61666250D01*
X140553751Y-61666250D01*
X140553751Y-61941221D01*
X140553752Y-61941241D01*
X140559121Y-61993807D01*
X140546350Y-62062500D01*
X140498469Y-62113383D01*
X140430679Y-62130303D01*
X140421880Y-62129627D01*
X140253754Y-62110685D01*
X140253746Y-62110685D01*
X140074500Y-62130880D01*
X140074495Y-62130881D01*
X139904226Y-62190461D01*
X139751487Y-62286434D01*
X139623934Y-62413987D01*
X139527960Y-62566728D01*
X139468380Y-62737000D01*
X139458587Y-62823916D01*
X139431520Y-62888330D01*
X139423049Y-62897712D01*
X139366332Y-62954430D01*
X139305009Y-62987916D01*
X139278650Y-62990750D01*
X139003749Y-62990750D01*
X139003730Y-62990751D01*
X138900953Y-63001250D01*
X138900950Y-63001251D01*
X138734418Y-63056435D01*
X138734413Y-63056437D01*
X138585092Y-63148539D01*
X138461039Y-63272592D01*
X138368937Y-63421913D01*
X138368936Y-63421916D01*
X138313751Y-63588453D01*
X138313751Y-63588454D01*
X138313750Y-63588454D01*
X138303250Y-63691233D01*
X138303250Y-64316251D01*
X138303251Y-64316269D01*
X138313750Y-64419046D01*
X138313751Y-64419049D01*
X138352368Y-64535586D01*
X138368936Y-64585584D01*
X138438765Y-64698796D01*
X138461039Y-64734907D01*
X138554701Y-64828569D01*
X138588186Y-64889892D01*
X138583202Y-64959584D01*
X138554701Y-65003931D01*
X138461039Y-65097592D01*
X138368937Y-65246913D01*
X138368936Y-65246916D01*
X138313751Y-65413453D01*
X138313751Y-65413454D01*
X138313750Y-65413454D01*
X138303250Y-65516233D01*
X138303250Y-66141251D01*
X138303251Y-66141269D01*
X138313750Y-66244046D01*
X138313751Y-66244049D01*
X138368935Y-66410581D01*
X138368937Y-66410586D01*
X138403819Y-66467138D01*
X138461038Y-66559906D01*
X138585094Y-66683962D01*
X138734416Y-66776064D01*
X138900953Y-66831249D01*
X139003741Y-66841750D01*
X140003758Y-66841749D01*
X140003766Y-66841748D01*
X140003769Y-66841748D01*
X140060052Y-66835998D01*
X140106547Y-66831249D01*
X140273084Y-66776064D01*
X140422406Y-66683962D01*
X140422413Y-66683954D01*
X140424806Y-66682063D01*
X140426767Y-66681271D01*
X140428553Y-66680170D01*
X140428741Y-66680474D01*
X140489598Y-66655915D01*
X140558242Y-66668947D01*
X140600994Y-66705009D01*
X140671202Y-66798794D01*
X140671205Y-66798797D01*
X140786414Y-66885043D01*
X140786421Y-66885047D01*
X140831368Y-66901811D01*
X140921267Y-66935341D01*
X140980877Y-66941750D01*
X141128651Y-66941749D01*
X141195691Y-66961433D01*
X141216333Y-66978068D01*
X141417833Y-67179569D01*
X141451318Y-67240892D01*
X141446334Y-67310584D01*
X141404462Y-67366517D01*
X141338998Y-67390934D01*
X141330152Y-67391250D01*
X141305905Y-67391250D01*
X141246377Y-67397651D01*
X141246370Y-67397653D01*
X141111663Y-67447895D01*
X141111656Y-67447899D01*
X140996562Y-67534059D01*
X140996559Y-67534062D01*
X140910399Y-67649156D01*
X140910395Y-67649164D01*
X140907283Y-67657508D01*
X140865410Y-67713441D01*
X140799946Y-67737856D01*
X140731673Y-67723003D01*
X140682269Y-67673597D01*
X140673396Y-67653176D01*
X140663108Y-67622130D01*
X140663106Y-67622125D01*
X140571065Y-67472904D01*
X140447095Y-67348934D01*
X140297874Y-67256893D01*
X140297869Y-67256891D01*
X140131447Y-67201744D01*
X140131440Y-67201743D01*
X140028736Y-67191250D01*
X139753750Y-67191250D01*
X139753750Y-68317250D01*
X139734065Y-68384289D01*
X139681261Y-68430044D01*
X139629750Y-68441250D01*
X138278751Y-68441250D01*
X138278751Y-68491236D01*
X138289244Y-68593947D01*
X138344391Y-68760369D01*
X138344393Y-68760374D01*
X138436434Y-68909595D01*
X138560405Y-69033566D01*
X138560409Y-69033569D01*
X138563406Y-69035418D01*
X138565029Y-69037222D01*
X138566073Y-69038048D01*
X138565931Y-69038226D01*
X138610131Y-69087366D01*
X138621352Y-69156329D01*
X138593509Y-69220411D01*
X138563411Y-69246491D01*
X138560099Y-69248533D01*
X138560093Y-69248538D01*
X138436039Y-69372592D01*
X138343937Y-69521913D01*
X138343936Y-69521916D01*
X138288751Y-69688453D01*
X138288751Y-69688454D01*
X138288750Y-69688454D01*
X138278250Y-69791233D01*
X138278250Y-70391251D01*
X138000500Y-70391251D01*
X138000500Y-67941250D01*
X138278750Y-67941250D01*
X139253750Y-67941250D01*
X139253750Y-67191250D01*
X138978779Y-67191250D01*
X138978762Y-67191251D01*
X138876052Y-67201744D01*
X138709630Y-67256891D01*
X138709625Y-67256893D01*
X138560404Y-67348934D01*
X138436434Y-67472904D01*
X138344393Y-67622125D01*
X138344391Y-67622130D01*
X138289244Y-67788552D01*
X138289243Y-67788559D01*
X138278750Y-67891263D01*
X138278750Y-67941250D01*
X138000500Y-67941250D01*
X138000500Y-61240782D01*
X138000501Y-61240753D01*
X138000500Y-61232133D01*
X138000502Y-61232130D01*
X138000500Y-61170658D01*
X138000658Y-61166250D01*
X140553750Y-61166250D01*
X141303750Y-61166250D01*
X141303750Y-60191250D01*
X141303749Y-60191249D01*
X141253779Y-60191250D01*
X141253761Y-60191251D01*
X141151052Y-60201744D01*
X140984630Y-60256891D01*
X140984625Y-60256893D01*
X140835404Y-60348934D01*
X140711434Y-60472904D01*
X140619393Y-60622125D01*
X140619391Y-60622130D01*
X140564244Y-60788552D01*
X140564243Y-60788559D01*
X140553750Y-60891263D01*
X140553750Y-61166250D01*
X138000658Y-61166250D01*
X138000816Y-61161815D01*
X138005210Y-61100358D01*
X138015125Y-60961679D01*
X138017642Y-60944170D01*
X138046871Y-60809796D01*
X138059347Y-60752432D01*
X138064331Y-60735462D01*
X138072362Y-60713928D01*
X138132900Y-60551606D01*
X138140238Y-60535537D01*
X138234281Y-60363304D01*
X138243835Y-60348437D01*
X138361430Y-60191344D01*
X138373006Y-60177985D01*
X138511750Y-60039237D01*
X138525119Y-60027653D01*
X138540127Y-60016417D01*
X138682204Y-59910057D01*
X138697070Y-59900504D01*
X138869305Y-59806454D01*
X138885371Y-59799116D01*
X139069239Y-59730536D01*
X139086192Y-59725558D01*
X139277936Y-59683846D01*
X139295435Y-59681330D01*
X139494883Y-59667066D01*
X139503729Y-59666750D01*
X139565892Y-59666750D01*
X149019893Y-59666750D01*
X149019897Y-59666751D01*
G37*
%TD.AperFunction*%
%TD*%
M02*
